<svg width="40" height="40" viewBox="0 0 40 40" fill="none" xmlns="http://www.w3.org/2000/svg">
<rect width="40" height="40" rx="20" fill="white"/>
<path d="M25.7861 17.2442L24.7287 16.2093C24.5861 16.0698 24.4079 16 24.2059 16C24.004 16 23.8257 16.0698 23.6832 16.2093L18.598 21.186L16.3287 18.9535C16.1861 18.814 16.0079 18.7442 15.8059 18.7442C15.604 18.7442 15.4257 18.814 15.2832 18.9535L14.2257 19.9884C14.0713 20.1279 14 20.3023 14 20.5C14 20.6977 14.0713 20.8721 14.2139 21.0116L17.0178 23.7558L18.0752 24.7907C18.2178 24.9302 18.396 25 18.598 25C18.8 25 18.9782 24.9302 19.1208 24.7907L20.1782 23.7558L25.7861 18.2674C25.9287 18.1279 26 17.9535 26 17.7558C26 17.5581 25.9287 17.3837 25.7861 17.2442Z" fill="#E30613"/>
</svg>
